<svg width="85" height="85" viewBox="0 0 85 85" fill="none" xmlns="http://www.w3.org/2000/svg">
<g filter="url(#filter0_d_1:107)">
<rect x="10" y="6" width="65" height="65" rx="6" fill="white"/>
</g>
<path d="M42.4863 25.6079C34.0337 25.6045 27.1875 32.4473 27.1875 40.8931C27.1875 47.5718 31.4702 53.249 37.4346 55.334C38.2378 55.5357 38.1147 54.9649 38.1147 54.5752V51.9263C33.4766 52.4697 33.2886 49.4004 32.9775 48.8877C32.3486 47.8145 30.8618 47.541 31.3062 47.0283C32.3623 46.4849 33.439 47.1651 34.6865 49.0073C35.5889 50.3438 37.3491 50.1182 38.2412 49.896C38.436 49.0928 38.853 48.375 39.4272 47.8179C34.6216 46.9566 32.6187 44.0239 32.6187 40.5376C32.6187 38.8457 33.1758 37.2905 34.2695 36.0362C33.5723 33.9683 34.3345 32.1978 34.437 31.9346C36.4229 31.7569 38.4873 33.3565 38.6479 33.4829C39.7759 33.1787 41.0645 33.0181 42.5068 33.0181C43.9561 33.0181 45.248 33.1856 46.3862 33.4932C46.7725 33.1992 48.6865 31.8252 50.5322 31.9927C50.6313 32.2559 51.3765 33.9854 50.7202 36.0259C51.8276 37.2837 52.3916 38.8526 52.3916 40.5479C52.3916 44.041 50.375 46.9771 45.5557 47.8247C45.9685 48.2307 46.2962 48.7148 46.5198 49.2488C46.7434 49.7829 46.8583 50.3561 46.8579 50.9351V54.7803C46.8853 55.0879 46.8579 55.3921 47.3706 55.3921C53.4238 53.3516 57.7817 47.6333 57.7817 40.8965C57.7817 32.4473 50.9321 25.6079 42.4863 25.6079Z" fill="black"/>
<defs>
<filter id="filter0_d_1:107" x="0" y="0" width="85" height="85" filterUnits="userSpaceOnUse" color-interpolation-filters="sRGB">
<feFlood flood-opacity="0" result="BackgroundImageFix"/>
<feColorMatrix in="SourceAlpha" type="matrix" values="0 0 0 0 0 0 0 0 0 0 0 0 0 0 0 0 0 0 127 0" result="hardAlpha"/>
<feOffset dy="4"/>
<feGaussianBlur stdDeviation="5"/>
<feColorMatrix type="matrix" values="0 0 0 0 0 0 0 0 0 0 0 0 0 0 0 0 0 0 0.08 0"/>
<feBlend mode="normal" in2="BackgroundImageFix" result="effect1_dropShadow_1:107"/>
<feBlend mode="normal" in="SourceGraphic" in2="effect1_dropShadow_1:107" result="shape"/>
</filter>
</defs>
</svg>
